<svg width="24.000000" height="24.000000" viewBox="0 0 24 24" fill="none" xmlns="http://www.w3.org/2000/svg" xmlns:xlink="http://www.w3.org/1999/xlink">
	<desc>
			Created with Pixso.
	</desc>
	<defs/>
	<rect id="clock-plus" rx="0.000000" width="23.000000" height="23.000000" transform="translate(0.500000 0.500000)" fill="#FFFFFF" fill-opacity="0"/>
	<path id="Solid" d="M12 1C5.92 1 1 5.92 1 12C1 18.07 5.92 23 12 23C12.58 23 13.15 22.95 13.71 22.86C14.17 22.79 14.41 22.75 14.51 22.66C14.63 22.56 14.67 22.49 14.69 22.34C14.7 22.2 14.56 21.88 14.26 21.24C14.09 20.86 14 20.44 14 20C14 18.34 15.34 17 17 17C17 15.34 18.34 14 20 14C20.44 14 20.86 14.09 21.24 14.26C21.88 14.56 22.2 14.7 22.34 14.69C22.49 14.67 22.56 14.63 22.66 14.51C22.75 14.41 22.79 14.17 22.86 13.71C22.95 13.15 23 12.58 23 12C23 5.92 18.07 1 12 1ZM12 5C12.55 5 13 5.44 13 6L13 11.38L16.44 13.1C16.94 13.35 17.14 13.95 16.89 14.44C16.64 14.94 16.04 15.14 15.55 14.89L11.55 12.89C11.21 12.72 11 12.37 11 12L11 6C11 5.44 11.44 5 12 5ZM20 16C20.55 16 21 16.44 21 17L21 19L23 19C23.55 19 24 19.44 24 20C24 20.55 23.55 21 23 21L21 21L21 23C21 23.55 20.55 24 20 24C19.44 24 19 23.55 19 23L19 21L17 21C16.44 21 16 20.55 16 20C16 19.44 16.44 19 17 19L19 19L19 17C19 16.44 19.44 16 20 16Z" fill="#898989" fill-opacity="1.000000" fill-rule="evenodd"/>
</svg>
