<svg width="24.000000" height="24.000000" viewBox="0 0 24 24" fill="none" xmlns="http://www.w3.org/2000/svg" xmlns:xlink="http://www.w3.org/1999/xlink">
	<desc>
			Created with Pixso.
	</desc>
	<defs/>
	<rect rx="0.000000" width="23.000000" height="23.000000" transform="translate(0.500000 0.500000)" fill="#FFFFFF" fill-opacity="0"/>
	<path d="M1 6.16C1 5.63 1 5.17 1.03 4.8C1.06 4.4 1.13 4.01 1.32 3.63C1.61 3.07 2.07 2.61 2.63 2.32C3.01 2.13 3.4 2.06 3.8 2.03C4.17 2 4.63 2 5.16 2L9.14 2C9.74 1.99 10.26 1.99 10.74 2.16C11.16 2.3 11.54 2.54 11.86 2.85C12.22 3.21 12.45 3.67 12.72 4.21L13.61 6L17.24 6C18.04 6 18.71 5.99 19.25 6.04C19.81 6.09 20.33 6.18 20.81 6.43C21.56 6.81 22.18 7.43 22.56 8.18C22.81 8.66 22.9 9.18 22.95 9.74C23 10.28 23 10.95 23 11.75L23 16.24C23 17.04 23 17.71 22.95 18.25C22.9 18.81 22.81 19.33 22.56 19.81C22.18 20.56 21.56 21.18 20.81 21.56C20.33 21.81 19.81 21.9 19.25 21.95C18.71 22 18.04 22 17.24 22L6.75 22C5.95 22 5.28 22 4.74 21.95C4.18 21.9 3.66 21.81 3.18 21.56C2.43 21.18 1.81 20.56 1.43 19.81C1.18 19.33 1.09 18.81 1.04 18.25C1 17.71 1 17.04 1 16.24L1 6.16ZM9.02 4C9.81 4 9.96 4.01 10.09 4.05C10.23 4.1 10.35 4.18 10.46 4.28C10.55 4.37 10.63 4.5 10.99 5.21L11.38 6L3 6C3 5.53 3 5.21 3.02 4.96C3.04 4.69 3.08 4.59 3.1 4.54C3.2 4.35 3.35 4.2 3.54 4.1C3.59 4.08 3.69 4.04 3.96 4.02C4.25 4 4.62 4 5.19 4L9.02 4Z" fill="#908986" fill-opacity="1.000000" fill-rule="evenodd"/>
</svg>
