<svg width="24.000000" height="24.000000" viewBox="0 0 24 24" fill="none" xmlns="http://www.w3.org/2000/svg" xmlns:xlink="http://www.w3.org/1999/xlink">
	<desc>
			Created with Pixso.
	</desc>
	<defs/>
	<rect rx="0.000000" width="23.000000" height="23.000000" transform="translate(0.500000 0.500000)" fill="#FFFFFF" fill-opacity="0"/>
	<path d="M17.53 2.3C16.57 1.19 15.01 0.67 13.44 1.41C11.63 2.28 10.84 4.36 11.61 6.19C11.99 7.11 13.04 8.78 13.73 9.86L13.75 9.88C13.86 10.06 13.98 10.24 14.1 10.39C14.23 10.56 14.39 10.74 14.63 10.89C14.96 11.1 15.36 11.2 15.75 11.19C16.03 11.18 16.26 11.11 16.46 11.03C16.63 10.95 16.83 10.85 17.02 10.76L17.04 10.74C18.18 10.16 19.92 9.23 20.72 8.63C22.29 7.44 22.69 5.23 21.51 3.56C20.51 2.16 18.91 1.82 17.53 2.3ZM3.5 13L3.47 13L3.47 13C3.26 13 3.05 12.99 2.88 13.01C2.69 13.02 2.46 13.05 2.23 13.15C1.74 13.35 1.35 13.74 1.15 14.23C1.05 14.46 1.02 14.69 1.01 14.88C1 15.05 1 15.26 1 15.47L1 15.47L1 15.5L1 20.52L1 20.52C1 20.73 1 20.94 1.01 21.11C1.02 21.3 1.05 21.53 1.15 21.76C1.35 22.25 1.74 22.64 2.23 22.84C2.46 22.94 2.69 22.97 2.88 22.98C3.05 23 3.26 23 3.47 23L3.52 23C3.73 23 3.94 23 4.11 22.98C4.3 22.97 4.53 22.94 4.76 22.84C5.25 22.64 5.64 22.25 5.84 21.76C5.94 21.53 5.97 21.3 5.98 21.11C6 20.94 6 20.73 6 20.52L6 15.5L6 15.47C6 15.26 6 15.05 5.98 14.88C5.97 14.69 5.94 14.46 5.84 14.23C5.64 13.74 5.25 13.35 4.76 13.15C4.53 13.05 4.3 13.02 4.11 13.01C3.94 12.99 3.73 13 3.52 13L3.52 13L3.5 13ZM17.7 15.89C17.7 16.68 17.18 17.35 16.46 17.57L16.92 17.55C17.43 17.55 17.92 17.39 18.33 17.1L21.16 15.03C21.86 14.52 22.85 14.59 23.48 15.19C24.17 15.87 24.17 16.96 23.48 17.63L21.05 19.99C20.39 20.63 19.56 21.06 18.65 21.24L15.22 21.91C14.54 22.04 13.84 22.02 13.17 21.86L10.07 21.1C9.69 21.01 9.31 20.97 8.93 20.97C8.53 20.97 8.32 20.97 8.16 20.91C7.88 20.81 7.65 20.59 7.55 20.3C7.5 20.14 7.5 19.94 7.5 19.53L7.5 16.1C7.5 15.82 7.5 15.67 7.53 15.54C7.56 15.43 7.62 15.32 7.69 15.22C7.77 15.11 7.88 15.02 8.11 14.84L9.29 13.91C9.29 13.91 11.26 13 12.34 13C12.79 13 13.24 13.05 13.68 13.16L16.36 13.83C17.15 14.02 17.7 14.73 17.7 15.54L17.7 15.89Z" fill="#BC5EAD" fill-opacity="1.000000" fill-rule="evenodd"/>
</svg>
