<svg width="24.000000" height="24.000000" viewBox="0 0 24 24" fill="none" xmlns="http://www.w3.org/2000/svg" xmlns:xlink="http://www.w3.org/1999/xlink">
	<desc>
			Created with Pixso.
	</desc>
	<defs/>
	<rect id="heart" rx="0.000000" width="23.000000" height="23.000000" transform="translate(0.500000 0.500000)" fill="#FFFFFF" fill-opacity="0"/>
	<path id="Solid" d="M11.99 3.71C9.65 1.67 6.19 1.25 3.5 3.54C0.59 6.03 0.17 10.21 2.47 13.17C3.34 14.29 5.05 15.98 6.68 17.52C8.34 19.09 9.99 20.56 10.8 21.28C10.81 21.29 10.81 21.29 10.82 21.3C10.9 21.37 10.99 21.45 11.08 21.52C11.19 21.6 11.35 21.7 11.56 21.77C11.84 21.85 12.14 21.85 12.42 21.77C12.63 21.7 12.78 21.6 12.89 21.52C12.98 21.45 13.08 21.37 13.16 21.3C13.16 21.29 13.17 21.29 13.17 21.28C13.99 20.56 15.64 19.09 17.29 17.52C18.93 15.98 20.63 14.29 21.51 13.17C23.8 10.22 23.44 6.01 20.47 3.54C17.75 1.28 14.33 1.67 11.99 3.71Z" fill="#7990F8" fill-opacity="1.000000" fill-rule="evenodd"/>
</svg>
