<svg display="none" xmlns="http://www.w3.org/2000/svg">
    <!-- Icon health -->
    <symbol id="icon-health" viewBox="0 0 24 24" fill="none">
        <rect id="heart" rx="0.000000" width="23.000000" height="23.000000"
            transform="translate(0.500000 0.500000)" fill="#FFFFFF" fill-opacity="0" />
        <path id="Solid"
            d="M11.99 3.71C9.65 1.67 6.19 1.25 3.5 3.54C0.59 6.03 0.17 10.21 2.47 13.17C3.34 14.29 5.05 15.98 6.68 17.52C8.34 19.09 9.99 20.56 10.8 21.28C10.81 21.29 10.81 21.29 10.82 21.3C10.9 21.37 10.99 21.45 11.08 21.52C11.19 21.6 11.35 21.7 11.56 21.77C11.84 21.85 12.14 21.85 12.42 21.77C12.63 21.7 12.78 21.6 12.89 21.52C12.98 21.45 13.08 21.37 13.16 21.3C13.16 21.29 13.17 21.29 13.17 21.28C13.99 20.56 15.64 19.09 17.29 17.52C18.93 15.98 20.63 14.29 21.51 13.17C23.8 10.22 23.44 6.01 20.47 3.54C17.75 1.28 14.33 1.67 11.99 3.71Z"
            fill="#7990F8" fill-opacity="1.000000" fill-rule="evenodd" />
    </symbol>

    <!-- Icon work -->
    <symbol id="icon-work" viewBox="0 0 24 24" fill="none">
        <rect rx="0.000000" width="23.000000" height="23.000000"
            transform="translate(0.500000 0.500000)" fill="#FFFFFF" fill-opacity="0" />
        <path
            d="M16.83 1L7.16 1C6.63 0.99 6.17 0.99 5.8 1.03C5.4 1.06 5.01 1.13 4.63 1.32C4.07 1.61 3.61 2.07 3.32 2.63C3.13 3.01 3.06 3.4 3.03 3.8C3 4.17 3 4.63 3 5.16L3 18.83C3 19.36 3 19.82 3.03 20.19C3.06 20.59 3.13 20.98 3.32 21.36C3.61 21.92 4.07 22.38 4.63 22.67C5.01 22.86 5.4 22.93 5.8 22.96C6.17 23 6.63 23 7.16 23L16.83 23C17.36 23 17.82 23 18.19 22.96C18.59 22.93 18.98 22.86 19.36 22.67C19.92 22.38 20.38 21.92 20.67 21.36C20.86 20.98 20.93 20.59 20.96 20.19C21 19.82 21 19.36 21 18.83L21 5.16C21 4.63 21 4.17 20.96 3.8C20.93 3.4 20.86 3.01 20.67 2.63C20.38 2.07 19.92 1.61 19.36 1.32C18.98 1.13 18.59 1.06 18.19 1.03C17.82 0.99 17.36 0.99 16.83 1ZM12 16C11.17 16 10.5 16.67 10.5 17.5C10.5 18.32 11.17 19 12 19C12.82 19 13.5 18.32 13.5 17.5C13.5 16.67 12.82 16 12 16Z"
            fill="#46CF8B" fill-opacity="1.000000" fill-rule="evenodd" />
    </symbol>

    <!-- Icon Mentality -->
    <symbol id="icon-mentality" viewBox="0 0 24 24" fill="none">
        <rect rx="0.000000" width="23.000000" height="23.000000"
            transform="translate(0.500000 0.500000)" fill="#FFFFFF" fill-opacity="0" />
        <path
            d="M17.53 2.3C16.57 1.19 15.01 0.67 13.44 1.41C11.63 2.28 10.84 4.36 11.61 6.19C11.99 7.11 13.04 8.78 13.73 9.86L13.75 9.88C13.86 10.06 13.98 10.24 14.1 10.39C14.23 10.56 14.39 10.74 14.63 10.89C14.96 11.1 15.36 11.2 15.75 11.19C16.03 11.18 16.26 11.11 16.46 11.03C16.63 10.95 16.83 10.85 17.02 10.76L17.04 10.74C18.18 10.16 19.92 9.23 20.72 8.63C22.29 7.44 22.69 5.23 21.51 3.56C20.51 2.16 18.91 1.82 17.53 2.3ZM3.5 13L3.47 13L3.47 13C3.26 13 3.05 12.99 2.88 13.01C2.69 13.02 2.46 13.05 2.23 13.15C1.74 13.35 1.35 13.74 1.15 14.23C1.05 14.46 1.02 14.69 1.01 14.88C1 15.05 1 15.26 1 15.47L1 15.47L1 15.5L1 20.52L1 20.52C1 20.73 1 20.94 1.01 21.11C1.02 21.3 1.05 21.53 1.15 21.76C1.35 22.25 1.74 22.64 2.23 22.84C2.46 22.94 2.69 22.97 2.88 22.98C3.05 23 3.26 23 3.47 23L3.52 23C3.73 23 3.94 23 4.11 22.98C4.3 22.97 4.53 22.94 4.76 22.84C5.25 22.64 5.64 22.25 5.84 21.76C5.94 21.53 5.97 21.3 5.98 21.11C6 20.94 6 20.73 6 20.52L6 15.5L6 15.47C6 15.26 6 15.05 5.98 14.88C5.97 14.69 5.94 14.46 5.84 14.23C5.64 13.74 5.25 13.35 4.76 13.15C4.53 13.05 4.3 13.02 4.11 13.01C3.94 12.99 3.73 13 3.52 13L3.52 13L3.5 13ZM17.7 15.89C17.7 16.68 17.18 17.35 16.46 17.57L16.92 17.55C17.43 17.55 17.92 17.39 18.33 17.1L21.16 15.03C21.86 14.52 22.85 14.59 23.48 15.19C24.17 15.87 24.17 16.96 23.48 17.63L21.05 19.99C20.39 20.63 19.56 21.06 18.65 21.24L15.22 21.91C14.54 22.04 13.84 22.02 13.17 21.86L10.07 21.1C9.69 21.01 9.31 20.97 8.93 20.97C8.53 20.97 8.32 20.97 8.16 20.91C7.88 20.81 7.65 20.59 7.55 20.3C7.5 20.14 7.5 19.94 7.5 19.53L7.5 16.1C7.5 15.82 7.5 15.67 7.53 15.54C7.56 15.43 7.62 15.32 7.69 15.22C7.77 15.11 7.88 15.02 8.11 14.84L9.29 13.91C9.29 13.91 11.26 13 12.34 13C12.79 13 13.24 13.05 13.68 13.16L16.36 13.83C17.15 14.02 17.7 14.73 17.7 15.54L17.7 15.89Z"
            fill="#BC5EAD" fill-opacity="1.000000" fill-rule="evenodd" />
    </symbol>

    <!-- Icon Other -->
    <symbol id="icon-other" viewBox="0 0 24 24" fill="none">
        <rect rx="0.000000" width="23.000000" height="23.000000"
            transform="translate(0.500000 0.500000)" fill="#FFFFFF" fill-opacity="0" />
        <path
            d="M1 6.16C1 5.63 1 5.17 1.03 4.8C1.06 4.4 1.13 4.01 1.32 3.63C1.61 3.07 2.07 2.61 2.63 2.32C3.01 2.13 3.4 2.06 3.8 2.03C4.17 2 4.63 2 5.16 2L9.14 2C9.74 1.99 10.26 1.99 10.74 2.16C11.16 2.3 11.54 2.54 11.86 2.85C12.22 3.21 12.45 3.67 12.72 4.21L13.61 6L17.24 6C18.04 6 18.71 5.99 19.25 6.04C19.81 6.09 20.33 6.18 20.81 6.43C21.56 6.81 22.18 7.43 22.56 8.18C22.81 8.66 22.9 9.18 22.95 9.74C23 10.28 23 10.95 23 11.75L23 16.24C23 17.04 23 17.71 22.95 18.25C22.9 18.81 22.81 19.33 22.56 19.81C22.18 20.56 21.56 21.18 20.81 21.56C20.33 21.81 19.81 21.9 19.25 21.95C18.71 22 18.04 22 17.24 22L6.75 22C5.95 22 5.28 22 4.74 21.95C4.18 21.9 3.66 21.81 3.18 21.56C2.43 21.18 1.81 20.56 1.43 19.81C1.18 19.33 1.09 18.81 1.04 18.25C1 17.71 1 17.04 1 16.24L1 6.16ZM9.02 4C9.81 4 9.96 4.01 10.09 4.05C10.23 4.1 10.35 4.18 10.46 4.28C10.55 4.37 10.63 4.5 10.99 5.21L11.38 6L3 6C3 5.53 3 5.21 3.02 4.96C3.04 4.69 3.08 4.59 3.1 4.54C3.2 4.35 3.35 4.2 3.54 4.1C3.59 4.08 3.69 4.04 3.96 4.02C4.25 4 4.62 4 5.19 4L9.02 4Z"
            fill="#908986" fill-opacity="1.000000" fill-rule="evenodd" />
    </symbol>

    <!-- Icon check -->
    <symbol id="icon-check" viewBox="0 0 11.3716 8.13983" fill="none">
        <path d="M0.73 3.76L3.53 6.76L10.73 0.76" stroke="#FFFFFF" stroke-opacity="1.000000"
            stroke-width="2.000000" />
    </symbol>

    <!-- Icon clock -->
    <symbol id="icon-clock" viewBox="0 0 24 24" fill="none">
        <rect id="clock-plus" rx="0.000000" width="23.000000" height="23.000000"
            transform="translate(0.500000 0.500000)" fill="#FFFFFF" fill-opacity="0" />
        <path id="Solid"
            d="M12 1C5.92 1 1 5.92 1 12C1 18.07 5.92 23 12 23C12.58 23 13.15 22.95 13.71 22.86C14.17 22.79 14.41 22.75 14.51 22.66C14.63 22.56 14.67 22.49 14.69 22.34C14.7 22.2 14.56 21.88 14.26 21.24C14.09 20.86 14 20.44 14 20C14 18.34 15.34 17 17 17C17 15.34 18.34 14 20 14C20.44 14 20.86 14.09 21.24 14.26C21.88 14.56 22.2 14.7 22.34 14.69C22.49 14.67 22.56 14.63 22.66 14.51C22.75 14.41 22.79 14.17 22.86 13.71C22.95 13.15 23 12.58 23 12C23 5.92 18.07 1 12 1ZM12 5C12.55 5 13 5.44 13 6L13 11.38L16.44 13.1C16.94 13.35 17.14 13.95 16.89 14.44C16.64 14.94 16.04 15.14 15.55 14.89L11.55 12.89C11.21 12.72 11 12.37 11 12L11 6C11 5.44 11.44 5 12 5ZM20 16C20.55 16 21 16.44 21 17L21 19L23 19C23.55 19 24 19.44 24 20C24 20.55 23.55 21 23 21L21 21L21 23C21 23.55 20.55 24 20 24C19.44 24 19 23.55 19 23L19 21L17 21C16.44 21 16 20.55 16 20C16 19.44 16.44 19 17 19L19 19L19 17C19 16.44 19.44 16 20 16Z"
            fill="currentColor" fill-opacity="1.000000" fill-rule="evenodd" />
    </symbol>

    <!-- Icon trash -->
    <symbol id="icon-trash" viewBox="0 0 24 24" fill="none" stroke="currentColor" stroke-width="2"
        stroke-linecap="round" stroke-linejoin="round">
        <path d="M3 6h18" />
        <path d="M19 6v14c0 1-1 2-2 2H7c-1 0-2-1-2-2V6" />
        <path d="M8 6V4c0-1 1-2 2-2h4c1 0 2 1 2 2v2" />
        <line x1="10" x2="10" y1="11" y2="17" />
        <line x1="14" x2="14" y1="11" y2="17" />
    </symbol>

    <!-- Icon pencil -->
    <symbol id="icon-pencil" viewBox="0 0 24 24" fill="none"
        stroke="currentColor" stroke-width="2" stroke-linecap="round" stroke-linejoin="round">
        <path
            d="M21.174 6.812a1 1 0 0 0-3.986-3.987L3.842 16.174a2 2 0 0 0-.5.83l-1.321 4.352a.5.5 0 0 0 .623.622l4.353-1.32a2 2 0 0 0 .83-.497z" />
        <path d="m15 5 4 4" />
    </symbol>

    <!-- Icon star -->
    <symbol id="icon-star" viewBox="0 0 24 24" fill="none"
        stroke="currentColor" stroke-width="2" stroke-linecap="round" stroke-linejoin="round">
        <path
            d="M11.525 2.295a.53.53 0 0 1 .95 0l2.31 4.679a2.123 2.123 0 0 0 1.595 1.16l5.166.756a.53.53 0 0 1 .294.904l-3.736 3.638a2.123 2.123 0 0 0-.611 1.878l.882 5.14a.53.53 0 0 1-.771.56l-4.618-2.428a2.122 2.122 0 0 0-1.973 0L6.396 21.01a.53.53 0 0 1-.77-.56l.881-5.139a2.122 2.122 0 0 0-.611-1.879L2.16 9.795a.53.53 0 0 1 .294-.906l5.165-.755a2.122 2.122 0 0 0 1.597-1.16z" />
    </symbol>

    <!-- Icon calendar -->
    <symbol id="icon-calendar" viewBox="0 0 24 24" fill="none"
        stroke="currentColor" stroke-width="2" stroke-linecap="round" stroke-linejoin="round">
        <path d="M8 2v4" />
        <path d="M16 2v4" />
        <rect width="18" height="18" x="3" y="4" rx="2" />
        <path d="M3 10h18" />
    </symbol>

    <!-- Icon plus -->
    <symbol id="icon-plus" viewBox="0 0 24 24" fill="none"
        stroke="white" stroke-width="2" stroke-linecap="round" stroke-linejoin="round">
        <path
            d="M3.85 8.62a4 4 0 0 1 4.78-4.77 4 4 0 0 1 6.74 0 4 4 0 0 1 4.78 4.78 4 4 0 0 1 0 6.74 4 4 0 0 1-4.77 4.78 4 4 0 0 1-6.75 0 4 4 0 0 1-4.78-4.77 4 4 0 0 1 0-6.76Z" />
        <line x1="12" x2="12" y1="8" y2="16" />
        <line x1="8" x2="16" y1="12" y2="12" />
    </symbol>

    <!-- Icon left -->
    <symbol id="icon-left" viewBox="0 0 24 24" fill="none"
        stroke="#000000" stroke-width="2" stroke-linecap="round" stroke-linejoin="round">
        <path d="m15 18-6-6 6-6" />
    </symbol>

    <!-- Icon save -->
    <symbol id="icon-save" viewBox="0 0 24 24" fill="none"
        stroke="#ffffff" stroke-width="2" stroke-linecap="round" stroke-linejoin="round">
        <path
            d="M15.2 3a2 2 0 0 1 1.4.6l3.8 3.8a2 2 0 0 1 .6 1.4V19a2 2 0 0 1-2 2H5a2 2 0 0 1-2-2V5a2 2 0 0 1 2-2z" />
        <path d="M17 21v-7a1 1 0 0 0-1-1H8a1 1 0 0 0-1 1v7" />
        <path d="M7 3v4a1 1 0 0 0 1 1h7" />
    </symbol>
</svg>