<svg width="24.000000" height="24.000000" viewBox="0 0 24 24" fill="none" xmlns="http://www.w3.org/2000/svg" xmlns:xlink="http://www.w3.org/1999/xlink">
	<desc>
			Created with Pixso.
	</desc>
	<defs/>
	<rect rx="0.000000" width="23.000000" height="23.000000" transform="translate(0.500000 0.500000)" fill="#FFFFFF" fill-opacity="0"/>
	<path d="M16.83 1L7.16 1C6.63 0.99 6.17 0.99 5.8 1.03C5.4 1.06 5.01 1.13 4.63 1.32C4.07 1.61 3.61 2.07 3.32 2.63C3.13 3.01 3.06 3.4 3.03 3.8C3 4.17 3 4.63 3 5.16L3 18.83C3 19.36 3 19.82 3.03 20.19C3.06 20.59 3.13 20.98 3.32 21.36C3.61 21.92 4.07 22.38 4.63 22.67C5.01 22.86 5.4 22.93 5.8 22.96C6.17 23 6.63 23 7.16 23L16.83 23C17.36 23 17.82 23 18.19 22.96C18.59 22.93 18.98 22.86 19.36 22.67C19.92 22.38 20.38 21.92 20.67 21.36C20.86 20.98 20.93 20.59 20.96 20.19C21 19.82 21 19.36 21 18.83L21 5.16C21 4.63 21 4.17 20.96 3.8C20.93 3.4 20.86 3.01 20.67 2.63C20.38 2.07 19.92 1.61 19.36 1.32C18.98 1.13 18.59 1.06 18.19 1.03C17.82 0.99 17.36 0.99 16.83 1ZM12 16C11.17 16 10.5 16.67 10.5 17.5C10.5 18.32 11.17 19 12 19C12.82 19 13.5 18.32 13.5 17.5C13.5 16.67 12.82 16 12 16Z" fill="#46CF8B" fill-opacity="1.000000" fill-rule="evenodd"/>
</svg>
